<svg xmlns="http://www.w3.org/2000/svg" viewBox="0 0 700 180" width="700" height="180">
  <!-- Background -->
  <rect width="700" height="180" fill="#0A0A0A" rx="8" stroke="#1a1a1a" stroke-width="0.5"/>
  
  <!-- Header -->
  <text x="30" y="28" font-family="'SF Mono', 'Fira Code', monospace" font-size="11" fill="#D97706" letter-spacing="2">// FEATURED PROJECTS</text>
  
  <!-- Project 1 -->
  <rect x="30" y="45" width="310" height="55" fill="#0a0a0a" rx="4" stroke="#1a1a1a" stroke-width="0.5"/>
  <rect x="30" y="45" width="3" height="55" fill="#D97706" rx="1" opacity="0.8"/>
  <text x="45" y="68" font-family="'SF Mono', monospace" font-size="12" fill="#E5E7EB">◆ project-alpha</text>
  <text x="45" y="86" font-family="'SF Mono', monospace" font-size="10" fill="#555555">High-performance UI component library</text>
  <text x="45" y="96" font-family="'SF Mono', monospace" font-size="9" fill="#D97706" opacity="0.6">React · TypeScript · Storybook</text>
  
  <!-- Project 2 -->
  <rect x="360" y="45" width="310" height="55" fill="#0a0a0a" rx="4" stroke="#1a1a1a" stroke-width="0.5"/>
  <rect x="360" y="45" width="3" height="55" fill="#D97706" rx="1" opacity="0.8"/>
  <text x="375" y="68" font-family="'SF Mono', monospace" font-size="12" fill="#E5E7EB">◆ motion-lab</text>
  <text x="375" y="86" font-family="'SF Mono', monospace" font-size="10" fill="#555555">Micro-interaction design system</text>
  <text x="375" y="96" font-family="'SF Mono', monospace" font-size="9" fill="#D97706" opacity="0.6">Framer · Next.js · Figma API</text>
  
  <!-- Project 3 -->
  <rect x="30" y="115" width="310" height="55" fill="#0a0a0a" rx="4" stroke="#1a1a1a" stroke-width="0.5"/>
  <rect x="30" y="115" width="3" height="55" fill="#D97706" rx="1" opacity="0.8"/>
  <text x="45" y="138" font-family="'SF Mono', monospace" font-size="12" fill="#E5E7EB">◆ dev-dashboard</text>
  <text x="45" y="156" font-family="'SF Mono', monospace" font-size="10" fill="#555555">Analytics dashboard with real-time data</text>
  <text x="45" y="166" font-family="'SF Mono', monospace" font-size="9" fill="#D97706" opacity="0.6">Next.js · D3.js · WebSocket</text>
  
  <!-- Project 4 -->
  <rect x="360" y="115" width="310" height="55" fill="#0a0a0a" rx="4" stroke="#1a1a1a" stroke-width="0.5"/>
  <rect x="360" y="115" width="3" height="55" fill="#D97706" rx="1" opacity="0.8"/>
  <text x="375" y="138" font-family="'SF Mono', monospace" font-size="12" fill="#E5E7EB">◆ ai-canvas</text>
  <text x="375" y="156" font-family="'SF Mono', monospace" font-size="10" fill="#555555">AI-powered creative coding playground</text>
  <text x="375" y="166" font-family="'SF Mono', monospace" font-size="9" fill="#D97706" opacity="0.6">Canvas API · OpenAI · WebGL</text>
</svg>
